<?xml version="1.0" encoding="utf-8"?>
<!-- Generator: Adobe Illustrator 21.0.0, SVG Export Plug-In . SVG Version: 6.00 Build 0)  -->
<svg version="1.1" id="Layer_1" xmlns="http://www.w3.org/2000/svg" xmlns:xlink="http://www.w3.org/1999/xlink" x="0px" y="0px"
	 viewBox="0 0 640 176.5" style="enable-background:new 0 0 640 176.5;" xml:space="preserve">
<style type="text/css">
	.st0{fill:none;}
	.st1{enable-background:new    ;}
	.st2{fill:#6D6E71;}
	.st3{font-family:'ArialMT';}
	.st4{font-size:132.8959px;}
	.st5{letter-spacing:-6;}
	.st6{fill:#006838;}
	.st7{fill:#8BC53F;}
	.st8{fill:#009345;}
</style>
<rect y="7.1" class="st0" width="419.6" height="138.4"/>
<rect class="st0" width="415.1" height="152.5"/>
<g class="st1">
	<path class="st2" d="M34.6,17.1c1.8,0.1,2.7,1.1,2.7,2.7v2c0,0.8-0.3,1.5-0.8,1.9c-0.5,0.4-1.1,0.7-1.8,0.7h-0.4
		c-1.9,0-3.7,0.1-5.2,0.4c-1.6,0.3-2.8,0.9-4.1,1.9c-1.1,0.9-1.9,2.3-2.6,4.2c-0.7,1.9-0.9,4.2-0.9,7.2v12.8h11.5
		c0.8,0,1.4,0.3,1.9,0.7c0.5,0.4,0.7,1.1,0.7,2v1.5c0,0.9-0.3,1.6-0.7,2c-0.5,0.5-1.1,0.8-1.9,0.8H21.6v55.6c0,0.8-0.3,1.5-0.8,1.9
		c-0.5,0.4-1.1,0.7-1.8,0.7h-2.2c-0.8,0-1.5-0.3-1.9-0.7c-0.4-0.5-0.7-1.1-0.7-1.9V57.9H6.1c-0.8,0-1.4-0.3-1.9-0.8
		c-0.4-0.5-0.7-1.2-0.7-2v-1.5c0-1.8,0.8-2.7,2.6-2.7h8.1V37.7c0-6.6,1.5-11.7,4.6-15.3S26.3,17,32.1,17c0.4,0,0.8,0,1.2,0
		C33.8,17,34.2,17,34.6,17.1z"/>
	<path class="st2" d="M110.3,113.7c0,0.8-0.3,1.4-0.7,1.8c-0.5,0.4-1.1,0.7-2,0.7h-2.2c-1.8,0-2.7-0.9-2.7-2.7v-11.5
		c-0.8,2.4-2,4.7-3.5,6.6c-1.5,1.9-3.4,3.5-5.4,4.9c-2.2,1.4-4.5,2.3-7.1,3.1c-2.6,0.7-5.3,1.1-8.1,1.1c-4.5,0-8.7-0.9-12.6-2.7
		c-3.9-1.8-7.3-4.2-10.2-7.2c-2.8-3.1-5.2-6.6-6.8-10.7c-1.6-4.1-2.4-8.5-2.4-13.2c0-4.7,0.8-9.1,2.4-13.3c1.6-4.2,3.8-7.7,6.6-10.9
		c2.8-3.1,6.2-5.6,10.2-7.3c3.9-1.8,8.1-2.7,12.8-2.7c3,0,5.7,0.4,8.3,1.1c2.6,0.8,5,1.8,7.2,3.3c2.2,1.4,3.9,3,5.4,4.9
		c1.5,1.9,2.6,3.9,3.3,6.2l0.3-11.4c0-0.9,0.3-1.6,0.7-2s1.1-0.7,1.9-0.7h1.9c0.8,0,1.5,0.3,1.9,0.7c0.5,0.4,0.8,1.1,0.8,2v60H110.3
		z M102.8,83.7c0-3.7-0.5-7.1-1.8-10.3c-1.2-3.3-2.8-6.1-4.9-8.5c-2.2-2.4-4.6-4.3-7.6-5.8c-3-1.4-6.2-2.2-9.8-2.2s-6.9,0.7-9.9,2.2
		c-3,1.4-5.6,3.4-7.7,5.7c-2.2,2.4-3.8,5.3-5,8.4c-1.4,3.4-2,6.8-2,10.4c0,3.7,0.5,7.1,1.8,10.3c1.2,3.3,2.8,6,5,8.4
		c2.2,2.4,4.7,4.3,7.7,5.7c3,1.4,6.2,2,9.8,2s6.8-0.7,9.8-2s5.6-3.3,7.6-5.6c2.2-2.3,3.8-5.2,5-8.4
		C102.1,90.8,102.8,87.4,102.8,83.7z"/>
	<path class="st2" d="M130,53.9c0-2,0.9-3.1,3-3.1h1.5c2.2,0,3.3,1.1,3.3,3.1v2.7v4.2c0.7-1.6,1.5-3.1,2.6-4.5
		c1.1-1.4,2.4-2.4,3.9-3.4c1.5-0.9,3.1-1.6,5-2.2s3.8-0.8,5.8-0.8c1.4,0,2.8,0.1,4.5,0.5c1.6,0.4,3.1,0.8,4.6,1.4
		c1.5,0.5,2.7,1.2,3.7,1.9c0.9,0.7,1.5,1.5,1.5,2.2c0,0.4-0.1,0.9-0.4,1.5c-0.3,0.5-0.5,1.1-0.9,1.6c-0.4,0.5-0.8,0.9-1.2,1.4
		c-0.4,0.4-0.7,0.5-0.9,0.5c-0.4,0-0.7,0-0.8,0s-0.4-0.1-0.7-0.3c-1.2-0.8-2.7-1.5-4.5-2.2c-1.6-0.7-3.4-0.9-5.2-0.9
		c-2.4,0-4.7,0.5-6.8,1.6s-3.8,2.6-5.3,4.5c-1.5,1.9-2.7,4.1-3.5,6.5s-1.4,4.9-1.4,7.5v35.9c0,1.6-0.8,2.4-2.4,2.4h-0.5h-2.2
		c-1.6,0-2.6-0.8-2.6-2.4v-0.7L130,53.9L130,53.9z"/>
	<path class="st2" d="M191.5,113.5c0,1.6-0.8,2.4-2.4,2.4h-2.7c-1.6,0-2.6-0.8-2.6-2.4V52.6c0-0.7,0.1-1.1,0.5-1.5
		c0.4-0.4,0.8-0.5,1.5-0.5h3.9c0.9,0,1.5,0.5,1.5,1.5l0.1,7.9c0.9-1.4,2-2.7,3.3-3.9c1.2-1.2,2.6-2.3,4.1-3.1
		c1.5-0.9,3.1-1.6,4.9-2.2c1.8-0.5,3.7-0.8,5.7-0.8c2.6,0,4.9,0.4,7.1,1.1c2.2,0.7,4.2,1.6,6.1,2.8c1.9,1.2,3.5,2.7,4.9,4.3
		c1.4,1.6,2.6,3.5,3.5,5.4c0.9-2,2-3.9,3.4-5.6c1.4-1.8,3-3.1,4.7-4.3c1.8-1.2,3.7-2.2,5.8-2.8c2.2-0.7,4.3-0.9,6.8-0.9
		c3.1,0,6.1,0.5,8.8,1.6s5.2,2.6,7.2,4.6c2.2,1.9,3.8,4.2,5.2,6.8s2.2,5.4,2.6,8.5c0.3,2.3,0.4,4.6,0.4,6.9v35c0,0.9-0.3,1.5-0.7,2
		c-0.5,0.4-1.1,0.7-1.9,0.7h-2.4c-1.8,0-2.7-0.8-2.7-2.6V74.7c0-2.4-0.5-4.6-1.4-6.8c-0.8-2.2-1.9-3.9-3.4-5.6
		c-1.5-1.5-3.3-2.7-5.3-3.7c-2-0.9-4.2-1.4-6.6-1.4c-2,0-4.1,0.4-6,1.1c-1.9,0.7-3.7,1.6-5.2,3c-1.5,1.2-2.8,2.7-3.8,4.5
		c-1.1,1.8-1.8,3.5-2.2,5.6c-0.3,1.1-0.4,2.2-0.5,3.3c-0.1,1.1-0.1,2.2-0.1,3.4v35.1c0,1.8-0.8,2.7-2.6,2.7h-2.7
		c-1.6,0-2.6-0.8-2.6-2.6V74.6c0-2.4-0.5-4.6-1.5-6.6c-0.9-2-2.2-3.9-3.7-5.4c-1.5-1.5-3.3-2.7-5.3-3.7c-2-0.9-4.2-1.4-6.6-1.4
		c-2.4,0-4.6,0.4-6.8,1.4c-2.2,0.9-3.9,2.2-5.6,3.8c-1.6,1.6-2.8,3.4-3.7,5.6c-0.9,2.2-1.4,4.3-1.4,6.8v38.5H191.5z"/>
	<path class="st2" d="M327.2,64.2c-1.4-2.3-3.3-4.2-5.7-5.7c-2.4-1.5-5.2-2.2-8.1-2.2c-1.9,0-3.7,0.3-5.3,0.8
		c-1.6,0.5-3,1.2-4.1,2.3c-1.1,0.9-2,2.2-2.7,3.5s-0.9,2.8-0.9,4.5s0.4,3,1.2,4.2c0.8,1.2,1.9,2.3,3.1,3.1c1.2,0.8,2.6,1.6,4.1,2.2
		c1.5,0.5,2.8,1.1,4.2,1.4l2,0.5c3.3,0.9,6.1,2,8.7,3.3c2.6,1.2,4.7,2.7,6.6,4.5c1.9,1.8,3.3,3.5,4.2,5.6c0.9,2,1.5,4.2,1.5,6.5
		c0,3-0.7,5.7-1.9,8c-1.2,2.3-2.8,4.3-5,6s-4.5,2.8-7.3,3.7c-2.7,0.8-5.7,1.2-8.7,1.2c-2.6,0-4.9-0.3-7.3-0.8
		c-2.4-0.5-4.5-1.5-6.5-2.6c-2-1.1-3.7-2.6-5.2-4.2c-1.5-1.8-2.6-3.7-3.3-5.8c-0.1-0.3-0.1-0.5-0.1-0.8c0-0.4,0.1-0.7,0.4-1.2
		c0.3-0.4,0.7-0.7,1.2-0.9l2.6-1.1c0.4-0.1,0.7-0.1,0.9-0.1c0.4,0,0.8,0.1,1.1,0.4c0.3,0.3,0.5,0.5,0.8,0.9l0.3,0.7
		c0.7,1.4,1.6,2.7,2.8,3.8c1.2,1.1,2.4,2,3.8,2.8c1.4,0.8,2.8,1.4,4.2,1.6c1.5,0.4,2.7,0.5,3.9,0.5c1.6,0,3.3-0.3,5.2-0.7
		c1.8-0.4,3.5-1.2,5-2.2c1.5-0.9,2.8-2.2,3.8-3.7c1.1-1.5,1.5-3.3,1.5-5.3c0-1.9-0.5-3.5-1.5-5c-1.1-1.5-2.3-2.7-3.9-3.7
		c-1.6-1.1-3.4-1.9-5.3-2.6s-3.8-1.2-5.7-1.8c-2.3-0.7-4.6-1.5-6.9-2.7c-2.3-1.1-4.3-2.4-6.1-3.9c-1.8-1.5-3.3-3.3-4.3-5.2
		c-1.1-1.9-1.6-4.1-1.6-6.4c0-2.7,0.5-5.2,1.5-7.3c0.9-2.2,2.3-4.1,4.1-5.7c1.8-1.6,3.9-2.8,6.4-3.7c2.4-0.8,5.3-1.4,8.3-1.4
		c4.5,0,8.4,0.9,11.9,2.8c3.5,1.9,6.5,4.9,8.8,9c0.3,0.5,0.3,0.9,0.3,1.4c0,0.3-0.1,0.7-0.3,0.9c-0.1,0.3-0.4,0.5-0.8,0.8l-2.3,1.4
		c-0.7,0.4-1.1,0.5-1.6,0.5c-0.5,0-0.8-0.1-1.1-0.4s-0.5-0.7-0.8-1.1L327.2,64.2L327.2,64.2z"/>
	<path class="st2" d="M352,19.8c0-1.6,0.8-2.4,2.4-2.4h2c0.7,0,1.2,0.1,1.6,0.5c0.4,0.4,0.7,0.8,0.8,1.5c0.1,0.7,0.3,1.4,0.4,2.2
		c0,0.8,0,1.6,0,2.4v3.3v33.9c1.1-1.8,2.3-3.3,3.8-4.7c1.5-1.5,3.1-2.7,5-3.7c1.9-1.1,3.8-1.9,6-2.4c2.2-0.5,4.3-0.8,6.5-0.8
		c3.8,0,7.3,0.7,10.4,2.2c3.3,1.5,6,3.4,8.4,5.8c2.3,2.4,4.2,5.4,5.6,8.7c1.4,3.4,2,6.9,2,10.7v36.5c0,0.9-0.3,1.5-0.7,1.9
		c-0.4,0.4-1.1,0.7-1.8,0.7h-2.3c-0.9,0-1.6-0.1-1.9-0.5c-0.4-0.4-0.5-1.1-0.5-1.9V76.8c-0.1-2.7-0.8-5.3-1.8-7.7
		c-0.9-2.4-2.3-4.6-4.1-6.4c-1.8-1.8-3.8-3.3-6.2-4.3s-5.2-1.6-8.1-1.6c-2.7,0-5.3,0.5-7.7,1.5c-2.4,0.9-4.5,2.3-6.4,4.1
		c-1.9,1.8-3.3,3.8-4.3,6.2c-1.1,2.3-1.6,4.9-1.6,7.6v37.4c0,0.8-0.3,1.4-0.7,1.8c-0.4,0.4-1.1,0.5-1.8,0.5h-2.3
		c-1.6,0-2.6-0.8-2.6-2.4V19.8H352z"/>
</g>
<text transform="matrix(1 0 0 1 414.9615 115.9418)" class="st2 st3 st4 st5"> </text>
<text transform="matrix(1 0 0 1 446.5016 115.9418)" class="st2 st3 st4 st5"> </text>
<rect x="157.9" y="127.6" class="st0" width="328.8" height="48.8"/>
<g class="st1">
	<path class="st2" d="M180.3,160.3L180.3,160.3v1.1c0,0.1,0,0.4,0,0.5c0,0.1,0,0.3,0,0.5c0,1.8-0.3,3.4-0.8,4.7
		c-0.5,1.4-1.4,2.4-2.3,3.4c-0.9,0.9-2,1.6-3.3,2c-1.2,0.4-2.6,0.7-3.8,0.7c-1.1,0-2-0.1-3-0.4c-0.8-0.3-1.8-0.7-2.6-1.1l0,0
		c-0.1-0.1-0.3-0.1-0.4-0.3c-0.1-0.1-0.1-0.1-0.1-0.3c0-0.1,0-0.1,0.1-0.3c0.1-0.1,0.1-0.3,0.3-0.4c0.1-0.1,0.3-0.3,0.3-0.4
		c0.1-0.1,0.1-0.3,0.1-0.3c0.1-0.1,0.1-0.3,0.3-0.3s0.3,0,0.4,0c0.1,0,0.3,0.1,0.4,0.1c0.1,0.1,0.3,0.1,0.4,0.3
		c0.5,0.3,1.1,0.4,1.8,0.7c0.5,0.1,1.2,0.3,1.8,0.3c0.9,0,1.9-0.1,2.8-0.5s1.8-0.8,2.4-1.5s1.4-1.5,1.8-2.6c0.4-0.9,0.7-2.2,0.7-3.5
		v-2.2c-0.3,0.8-0.7,1.4-1.2,2c-0.5,0.5-1.1,1.1-1.8,1.5c-0.7,0.4-1.5,0.7-2.3,0.9c-0.8,0.3-1.6,0.3-2.6,0.3c-1.5,0-2.8-0.3-4.1-0.8
		c-1.2-0.5-2.3-1.4-3.3-2.3c-0.9-0.9-1.6-2.2-2.2-3.4c-0.5-1.4-0.8-2.7-0.8-4.2s0.3-3,0.8-4.2c0.5-1.4,1.2-2.4,2.2-3.5
		c0.9-0.9,2-1.8,3.3-2.3c1.2-0.5,2.6-0.8,4.1-0.8c0.9,0,1.9,0.1,2.7,0.4c0.8,0.3,1.6,0.5,2.3,1.1c0.7,0.4,1.4,0.9,1.8,1.6
		c0.5,0.5,0.8,1.2,1.1,2l0.1-3.7c0-0.3,0.1-0.5,0.3-0.7c0.1-0.1,0.3-0.3,0.7-0.3h0.7c0.3,0,0.4,0.1,0.7,0.3c0.1,0.1,0.3,0.4,0.3,0.7
		L180.3,160.3L180.3,160.3z M177.8,154.5c0-1.2-0.1-2.3-0.5-3.3c-0.4-1.1-0.9-1.9-1.6-2.7s-1.5-1.4-2.6-1.9c-0.9-0.4-2-0.7-3.1-0.7
		c-1.1,0-2.2,0.3-3.1,0.7c-0.9,0.4-1.8,1.1-2.4,1.9s-1.2,1.6-1.6,2.7c-0.4,1.1-0.5,2.2-0.5,3.3c0,1.2,0.1,2.3,0.5,3.3
		c0.4,0.9,0.9,1.9,1.6,2.7c0.7,0.8,1.5,1.4,2.4,1.8c0.9,0.4,2,0.7,3.1,0.7c1.1,0,2.2-0.3,3.1-0.7c0.9-0.4,1.8-1.1,2.6-1.8
		c0.7-0.8,1.2-1.6,1.6-2.7C177.7,156.8,177.8,155.7,177.8,154.5z"/>
	<path class="st2" d="M186.4,145c0-0.7,0.3-0.9,0.9-0.9h0.4c0.7,0,1.1,0.3,1.1,0.9v0.8v1.4c0.1-0.5,0.5-0.9,0.8-1.4
		c0.4-0.4,0.8-0.8,1.2-1.1c0.4-0.3,0.9-0.5,1.6-0.7c0.5-0.1,1.2-0.3,1.9-0.3c0.4,0,0.9,0,1.5,0.1c0.5,0.1,1.1,0.3,1.5,0.4
		c0.4,0.1,0.8,0.4,1.2,0.7c0.3,0.3,0.4,0.4,0.4,0.7c0,0.1,0,0.3-0.1,0.5c-0.1,0.1-0.1,0.4-0.3,0.5s-0.3,0.3-0.4,0.4
		c-0.1,0.1-0.3,0.1-0.3,0.1c-0.1,0-0.1,0-0.3,0c0,0-0.1,0-0.3-0.1c-0.4-0.3-0.9-0.5-1.5-0.7c-0.5-0.3-1.1-0.3-1.6-0.3
		c-0.8,0-1.5,0.1-2.2,0.5s-1.2,0.8-1.8,1.5c-0.5,0.7-0.8,1.4-1.1,2c-0.3,0.8-0.4,1.6-0.4,2.4v11.5c0,0.5-0.3,0.8-0.8,0.8h-0.1h-0.7
		c-0.5,0-0.8-0.3-0.8-0.8V164L186.4,145L186.4,145z"/>
	<path class="st2" d="M201.3,154.5c0-1.5,0.3-3,0.8-4.2c0.5-1.4,1.4-2.4,2.3-3.5c0.9-0.9,2.2-1.8,3.4-2.3c1.2-0.5,2.7-0.8,4.2-0.8
		c1.5,0,3,0.3,4.2,0.8c1.2,0.5,2.4,1.4,3.5,2.3c0.9,0.9,1.8,2.2,2.3,3.5c0.5,1.4,0.8,2.7,0.8,4.2s-0.3,2.8-0.8,4.2s-1.4,2.4-2.3,3.4
		c-0.9,0.9-2.2,1.8-3.5,2.3c-1.4,0.5-2.7,0.8-4.2,0.8c-1.5,0-2.8-0.3-4.2-0.8c-1.4-0.5-2.4-1.4-3.4-2.3c-0.9-0.9-1.8-2.2-2.3-3.4
		C201.6,157.5,201.3,156,201.3,154.5z M203.6,154.5c0,1.2,0.3,2.3,0.7,3.3c0.4,1.1,1.1,1.9,1.9,2.7c0.8,0.8,1.6,1.4,2.7,1.9
		c1.1,0.4,2.2,0.7,3.3,0.7c1.2,0,2.3-0.3,3.3-0.7s1.9-1.1,2.7-1.9c0.8-0.8,1.4-1.6,1.9-2.7c0.4-1.1,0.7-2.2,0.7-3.3
		s-0.3-2.3-0.7-3.4c-0.4-1.1-1.1-1.9-1.9-2.7c-0.8-0.8-1.6-1.4-2.7-1.9c-1.1-0.4-2.2-0.7-3.3-0.7c-1.2,0-2.3,0.3-3.3,0.7
		c-1.1,0.4-1.9,1.1-2.7,1.9c-0.8,0.8-1.4,1.6-1.9,2.7C203.9,152.2,203.6,153.3,203.6,154.5z"/>
	<path class="st2" d="M233,158.8c0.1,0.3,0.3,0.5,0.4,0.8c0.1,0.3,0.3,0.5,0.4,0.8l0.8-1.8c0.8-1.9,1.6-3.8,2.3-5.6
		c0.7-1.9,1.5-3.8,2.3-5.6l0,0l1.2-2.8c0.1-0.3,0.3-0.5,0.5-0.5c0.3-0.1,0.5-0.1,0.8-0.1c0.3,0,0.5,0,0.7,0.1
		c0.1,0.1,0.3,0.3,0.3,0.5c0,0.1,0,0.3,0,0.3c-0.3,0.7-0.7,1.5-0.9,2.2s-0.7,1.5-0.9,2.2l3.9,9.4c0.1,0.3,0.3,0.5,0.4,0.9
		c0.1,0.4,0.3,0.5,0.4,0.9l0.7-1.8c0.9-2.4,1.9-4.7,3-7.1c0.9-2.3,2-4.7,3-7.1c0.1-0.3,0.3-0.4,0.7-0.5c0.4-0.1,0.7-0.1,0.9-0.1
		s0.4,0.1,0.5,0.3s0.3,0.3,0.3,0.4s0,0.3,0,0.4c-1.4,3.4-2.8,6.6-4.2,9.9s-2.7,6.6-4.2,9.9c0,0.1-0.1,0.3-0.3,0.3
		c-0.1,0.1-0.3,0.1-0.4,0.1c-0.1,0-0.3-0.1-0.4-0.3l0,0c-0.1-0.1-0.3-0.3-0.3-0.4c-0.1-0.1-0.1-0.3-0.3-0.5l-5-11.8l-5.3,12.6
		c0,0.1-0.1,0.1-0.1,0.3c-0.1,0.1-0.3,0.1-0.4,0.1l0,0c-0.1,0-0.3,0-0.4-0.1c-0.1-0.1-0.1-0.3-0.3-0.4l-8.3-19.8v-0.1
		c0,0,0-0.1,0-0.3c0-0.1,0.1-0.3,0.3-0.4c0.1-0.1,0.3-0.1,0.5-0.1h0.8c0.1,0,0.4,0,0.5,0.1s0.3,0.3,0.3,0.4L233,158.8z"/>
	<path class="st2" d="M258.6,137.8c0-0.5,0.1-0.9,0.5-1.4c0.4-0.4,0.8-0.5,1.4-0.5s0.9,0.1,1.4,0.5c0.4,0.4,0.5,0.8,0.5,1.4
		c0,0.5-0.1,0.9-0.5,1.4c-0.4,0.4-0.8,0.5-1.4,0.5s-0.9-0.1-1.4-0.5C258.7,138.8,258.6,138.2,258.6,137.8z M259.2,144.7
		c0-0.3,0.1-0.4,0.3-0.5c0.1-0.1,0.4-0.3,0.5-0.3h0.8c0.3,0,0.4,0.1,0.5,0.3c0.1,0.1,0.1,0.3,0.1,0.5V164c0,0.5-0.3,0.8-0.8,0.8H260
		c-0.5,0-0.8-0.3-0.8-0.8L259.2,144.7L259.2,144.7z"/>
	<path class="st2" d="M270.6,164.1c0,0.5-0.3,0.8-0.8,0.8H269c-0.5,0-0.8-0.3-0.8-0.8v-19.5c0-0.1,0-0.4,0.1-0.5
		c0.1-0.1,0.3-0.1,0.5-0.1h1.2c0.1,0,0.3,0,0.3,0.1c0,0.1,0.1,0.1,0.1,0.4v2.8c0.4-0.5,0.8-0.9,1.2-1.5c0.5-0.4,0.9-0.8,1.6-1.2
		c0.5-0.3,1.2-0.5,1.9-0.8c0.7-0.1,1.4-0.3,2-0.3c1.2,0,2.3,0.3,3.4,0.7s1.9,1.1,2.7,1.9s1.4,1.8,1.8,2.8c0.4,1.1,0.7,2.2,0.7,3.4
		V164c0,0.3-0.1,0.5-0.3,0.7c-0.1,0.1-0.4,0.3-0.5,0.3h-0.8c-0.3,0-0.5,0-0.5-0.1c-0.1-0.1-0.1-0.4-0.1-0.7v-11.7
		c0-0.8-0.1-1.8-0.5-2.4c-0.4-0.7-0.8-1.5-1.4-2c-0.5-0.5-1.2-0.9-2-1.4c-0.8-0.3-1.6-0.5-2.4-0.5c-0.8,0-1.6,0.1-2.4,0.4
		c-0.8,0.3-1.5,0.7-2,1.2c-0.5,0.5-1.1,1.2-1.5,1.9s-0.5,1.5-0.5,2.4L270.6,164.1L270.6,164.1z"/>
	<path class="st2" d="M310.6,160.3L310.6,160.3v1.1c0,0.1,0,0.4,0,0.5c0,0.1,0,0.3,0,0.5c0,1.8-0.3,3.4-0.8,4.7s-1.4,2.4-2.3,3.4
		s-2,1.6-3.3,2c-1.2,0.4-2.6,0.7-3.8,0.7c-1.1,0-2-0.1-3-0.4c-0.8-0.3-1.8-0.7-2.6-1.1l0,0c-0.1-0.1-0.3-0.1-0.4-0.3
		c-0.1-0.1-0.1-0.1-0.1-0.3c0-0.1,0-0.1,0.1-0.3c0.1-0.1,0.1-0.3,0.3-0.4c0.1-0.1,0.3-0.3,0.3-0.4c0.1-0.1,0.1-0.3,0.1-0.3
		c0.1-0.1,0.1-0.3,0.3-0.3c0.1,0,0.3,0,0.4,0c0.1,0,0.3,0.1,0.4,0.1c0.1,0.1,0.3,0.1,0.4,0.3c0.5,0.3,1.1,0.4,1.8,0.7
		c0.5,0.1,1.2,0.3,1.8,0.3c0.9,0,1.9-0.1,2.8-0.5c0.9-0.4,1.8-0.8,2.4-1.5s1.4-1.5,1.8-2.6c0.4-0.9,0.7-2.2,0.7-3.5v-2.2
		c-0.3,0.8-0.7,1.4-1.2,2c-0.5,0.5-1.1,1.1-1.8,1.5c-0.7,0.4-1.5,0.7-2.3,0.9c-0.8,0.3-1.6,0.3-2.6,0.3c-1.5,0-2.8-0.3-4.1-0.8
		c-1.2-0.5-2.3-1.4-3.3-2.3c-0.9-0.9-1.6-2.2-2.2-3.4c-0.5-1.4-0.8-2.7-0.8-4.2s0.3-3,0.8-4.2c0.5-1.4,1.2-2.4,2.2-3.5
		c0.9-0.9,2-1.8,3.3-2.3c1.2-0.5,2.6-0.8,4.1-0.8c0.9,0,1.9,0.1,2.7,0.4s1.6,0.5,2.3,1.1c0.7,0.4,1.4,0.9,1.8,1.6
		c0.5,0.5,0.8,1.2,1.1,2l0.1-3.7c0-0.3,0.1-0.5,0.3-0.7c0.1-0.1,0.3-0.3,0.7-0.3h0.7c0.3,0,0.4,0.1,0.7,0.3c0.1,0.1,0.3,0.4,0.3,0.7
		L310.6,160.3L310.6,160.3z M308.2,154.5c0-1.2-0.1-2.3-0.5-3.3c-0.4-1.1-0.9-1.9-1.6-2.7s-1.5-1.4-2.6-1.9c-0.9-0.4-2-0.7-3.1-0.7
		c-1.1,0-2.2,0.3-3.1,0.7c-0.9,0.4-1.8,1.1-2.4,1.9s-1.2,1.6-1.6,2.7s-0.5,2.2-0.5,3.3c0,1.2,0.1,2.3,0.5,3.3
		c0.4,0.9,0.9,1.9,1.6,2.7c0.7,0.8,1.5,1.4,2.4,1.8c0.9,0.4,2,0.7,3.1,0.7c1.1,0,2.2-0.3,3.1-0.7c0.9-0.4,1.8-1.1,2.6-1.8
		c0.7-0.8,1.2-1.6,1.6-2.7C308.1,156.8,308.2,155.7,308.2,154.5z"/>
	<path class="st2" d="M336.1,158.8c0.1,0.3,0.3,0.5,0.4,0.8c0.1,0.3,0.3,0.5,0.4,0.8l0.8-1.8c0.8-1.9,1.6-3.8,2.3-5.6
		s1.5-3.8,2.3-5.6l0,0l1.2-2.8c0.1-0.3,0.3-0.5,0.5-0.5c0.3-0.1,0.5-0.1,0.8-0.1c0.3,0,0.5,0,0.7,0.1c0.1,0.1,0.3,0.3,0.3,0.5
		c0,0.1,0,0.3,0,0.3c-0.3,0.7-0.7,1.5-0.9,2.2c-0.3,0.7-0.7,1.5-0.9,2.2l3.9,9.4c0.1,0.3,0.3,0.5,0.4,0.9c0.1,0.3,0.3,0.5,0.4,0.9
		l0.7-1.8c0.9-2.4,1.9-4.7,3-7.1c0.9-2.3,2-4.7,3-7.1c0.1-0.3,0.3-0.4,0.7-0.5c0.4-0.1,0.7-0.1,0.9-0.1c0.3,0,0.4,0.1,0.5,0.3
		s0.3,0.3,0.3,0.4s0,0.3,0,0.4c-1.4,3.4-2.8,6.6-4.2,9.9s-2.7,6.6-4.2,9.9c0,0.1-0.1,0.3-0.3,0.3c-0.1,0.1-0.3,0.1-0.4,0.1
		c-0.1,0-0.3-0.1-0.4-0.3l0,0c-0.1-0.1-0.3-0.3-0.3-0.4c-0.1-0.1-0.1-0.3-0.3-0.5l-5-11.8l-5.3,12.6c0,0.1-0.1,0.1-0.1,0.3
		c-0.1,0.1-0.3,0.1-0.4,0.1l0,0c-0.1,0-0.3,0-0.4-0.1c-0.1-0.1-0.1-0.3-0.3-0.4L328,145v-0.1c0-0.1,0-0.1,0-0.3
		c0-0.1,0.1-0.3,0.3-0.4c0.1-0.1,0.3-0.1,0.5-0.1h0.8c0.1,0,0.4,0,0.5,0.1s0.3,0.3,0.3,0.4L336.1,158.8z"/>
	<path class="st2" d="M361.5,137.8c0-0.5,0.1-0.9,0.5-1.4c0.4-0.4,0.8-0.5,1.4-0.5s0.9,0.1,1.4,0.5c0.4,0.4,0.5,0.8,0.5,1.4
		c0,0.5-0.1,0.9-0.5,1.4c-0.4,0.4-0.8,0.5-1.4,0.5s-0.9-0.1-1.4-0.5C361.6,138.8,361.5,138.2,361.5,137.8z M362.2,144.7
		c0-0.3,0.1-0.4,0.3-0.5c0.1-0.1,0.4-0.3,0.5-0.3h0.8c0.3,0,0.4,0.1,0.5,0.3c0.1,0.1,0.1,0.3,0.1,0.5V164c0,0.5-0.3,0.8-0.8,0.8H363
		c-0.5,0-0.8-0.3-0.8-0.8V144.7z"/>
	<path class="st2" d="M378.7,162.6c0.3,0,0.4,0,0.7,0.1c0.1,0.1,0.3,0.4,0.3,0.7v0.7c0,0.3-0.1,0.5-0.3,0.7
		c-0.1,0.1-0.4,0.1-0.7,0.1h-0.7c-0.7,0-1.4,0-2-0.1c-0.7-0.1-1.2-0.3-1.6-0.7c-0.4-0.4-0.8-0.8-1.1-1.5c-0.3-0.7-0.4-1.6-0.4-2.7
		v-13.7h-3c-0.3,0-0.5,0-0.7-0.1c-0.1-0.1-0.1-0.3-0.1-0.5v-0.8c0-0.3,0-0.5,0.1-0.5c0.1-0.1,0.4-0.1,0.7-0.1h3v-6.2
		c0-0.4,0.3-0.7,0.7-0.7l1.1-0.1c0.3,0,0.5,0.1,0.5,0.3c0.1,0.1,0.1,0.4,0.1,0.7v6.2h3.7c0.3,0,0.4,0,0.5,0.1s0.3,0.3,0.3,0.7v0.7
		c0,0.3-0.1,0.5-0.3,0.7s-0.4,0.1-0.5,0.1h-3.7v13.2c0,0.8,0,1.4,0.1,1.8c0.1,0.4,0.3,0.7,0.4,0.9c0.3,0.3,0.5,0.4,0.8,0.4
		c0.3,0,0.7,0.1,1.2,0.1h0.8V162.6z"/>
	<path class="st2" d="M384.4,134c0-0.5,0.3-0.8,0.8-0.8h0.7c0.3,0,0.4,0,0.5,0.1s0.3,0.3,0.3,0.5c0,0.1,0.1,0.4,0.1,0.7s0,0.5,0,0.8
		v1.1v10.9c0.3-0.5,0.7-1.1,1.2-1.5c0.4-0.4,0.9-0.8,1.6-1.2c0.5-0.3,1.2-0.5,1.9-0.8c0.7-0.1,1.4-0.3,2-0.3c1.2,0,2.3,0.3,3.4,0.7
		c1.1,0.4,1.9,1.1,2.7,1.9c0.8,0.8,1.4,1.8,1.8,2.8c0.4,1.1,0.7,2.2,0.7,3.4V164c0,0.3-0.1,0.5-0.3,0.7c-0.1,0.1-0.4,0.1-0.5,0.1
		h-0.7c-0.3,0-0.5,0-0.7-0.1c-0.1-0.1-0.1-0.3-0.1-0.7v-11.8c0-0.8-0.3-1.8-0.5-2.4c-0.3-0.8-0.8-1.5-1.4-2c-0.5-0.5-1.2-1.1-2-1.4
		c-0.8-0.3-1.6-0.5-2.6-0.5c-0.8,0-1.6,0.1-2.4,0.5c-0.8,0.3-1.5,0.8-2,1.4s-1.1,1.2-1.4,2c-0.4,0.8-0.5,1.6-0.5,2.4v11.9
		c0,0.3-0.1,0.4-0.3,0.5c-0.1,0.1-0.4,0.1-0.5,0.1h-0.7c-0.5,0-0.8-0.3-0.8-0.8v-30H384.4z"/>
	<path class="st2" d="M426.1,172.5c-0.3,0.4-0.5,0.7-1.1,0.7h-0.7c-0.3,0-0.5-0.1-0.7-0.3c-0.1-0.1-0.1-0.4,0-0.8l3.3-7.9l-8-19.3
		c-0.1-0.4-0.1-0.7,0-0.8s0.4-0.3,0.7-0.3h0.9c0.3,0,0.4,0,0.5,0.1s0.3,0.3,0.4,0.5l6.9,16.7l6.8-16.8c0.3-0.4,0.5-0.5,1.1-0.5h0.7
		c0.3,0,0.5,0.1,0.7,0.3c0.1,0.1,0.1,0.4,0,0.8L426.1,172.5z"/>
	<path class="st2" d="M439.5,154.5c0-1.5,0.3-3,0.8-4.2c0.5-1.4,1.4-2.4,2.3-3.5c0.9-0.9,2.2-1.8,3.4-2.3c1.2-0.5,2.7-0.8,4.2-0.8
		c1.5,0,3,0.3,4.2,0.8c1.4,0.5,2.4,1.4,3.5,2.3c0.9,0.9,1.8,2.2,2.3,3.5c0.5,1.4,0.8,2.7,0.8,4.2s-0.3,2.8-0.8,4.2s-1.4,2.4-2.3,3.4
		c-0.9,0.9-2.2,1.8-3.5,2.3c-1.4,0.5-2.7,0.8-4.2,0.8c-1.5,0-2.8-0.3-4.2-0.8c-1.4-0.5-2.4-1.4-3.4-2.3c-0.9-0.9-1.8-2.2-2.3-3.4
		C439.8,157.5,439.5,156,439.5,154.5z M441.8,154.5c0,1.2,0.3,2.3,0.7,3.3c0.4,1.1,1.1,1.9,1.9,2.7c0.8,0.8,1.6,1.4,2.7,1.9
		c1.1,0.4,2.2,0.7,3.3,0.7c1.2,0,2.3-0.3,3.3-0.7c1.1-0.4,1.9-1.1,2.7-1.9c0.8-0.8,1.4-1.6,1.9-2.7c0.4-1.1,0.7-2.2,0.7-3.3
		s-0.3-2.3-0.7-3.4c-0.4-1.1-1.1-1.9-1.9-2.7s-1.6-1.4-2.7-1.9c-1.1-0.4-2.2-0.7-3.3-0.7c-1.2,0-2.3,0.3-3.3,0.7
		c-1.1,0.4-1.9,1.1-2.7,1.9c-0.8,0.8-1.4,1.6-1.9,2.7C442.1,152.2,441.8,153.3,441.8,154.5z"/>
	<path class="st2" d="M483.3,164c0,0.3-0.1,0.4-0.3,0.5c-0.1,0.1-0.4,0.3-0.5,0.3h-0.7c-0.3,0-0.4-0.1-0.5-0.3
		c-0.1-0.1-0.1-0.3-0.3-0.5c0-0.4,0-0.8,0-1.2c0-0.4,0-0.8,0-1.2c-0.4,0.5-0.8,1.1-1.2,1.5c-0.5,0.4-0.9,0.8-1.6,1.2
		c-0.5,0.3-1.2,0.5-1.9,0.8c-0.7,0.1-1.4,0.3-2,0.3c-1.2,0-2.3-0.3-3.4-0.7c-1.1-0.4-1.9-1.1-2.7-1.9c-0.8-0.8-1.4-1.8-1.8-2.8
		c-0.4-1.1-0.7-2.2-0.7-3.4v-11.7c0-0.3,0.1-0.5,0.3-0.7c0.1-0.1,0.4-0.3,0.5-0.3h0.7c0.3,0,0.5,0.1,0.7,0.3
		c0.1,0.1,0.1,0.4,0.1,0.7v11.8c0,0.9,0.1,1.8,0.5,2.4c0.3,0.8,0.8,1.5,1.4,2c0.5,0.5,1.2,1.1,2,1.4c0.8,0.3,1.6,0.5,2.6,0.5
		c0.8,0,1.8-0.1,2.4-0.5c0.8-0.3,1.5-0.8,2-1.4c0.5-0.5,1.1-1.2,1.4-2c0.3-0.8,0.5-1.6,0.5-2.4v-11.9c0-0.5,0.3-0.8,0.8-0.8h0.7
		c0.5,0,0.8,0.3,0.8,0.8V164H483.3z"/>
</g>
<g>
	<path class="st6" d="M453.5,90.5c15.3,9.8,31.3,17.2,48.6,22.5c-3,2.4-6,4.3-9.4,6c-6.9,3.3-14.2,5-21.8,4.7
		c-3.9-0.1-7.7-1.1-11.7-1.8c-0.8-0.1-0.9-0.7-1.1-1.4c-1.2-7.1-2.4-14.1-3.7-21.2C454,96.4,453.9,93.6,453.5,90.5z"/>
	<path class="st7" d="M519,68.8c0.7,3.9,0.9,7.6,0.4,11.4c-1.1,11.7-5.7,21.6-14,29.8c-0.7,0.7-1.4,0.9-2.3,0.5
		c-9.1-2.8-18-6.2-26.6-10.3c-0.4-0.1-0.8-0.4-1.4-0.7C491.2,91.2,505.7,81,519,68.8z"/>
	<path class="st7" d="M489,32c1.1,0.5,2,0.8,3,1.2c13.4,6.5,22.1,17,26.2,31.3c0.1,0.7,0.1,1.1-0.4,1.6
		c-7.3,6.8-15.1,13.2-23.3,18.7c-0.1,0.1-0.1,0.1-0.5,0.3C494.6,67.3,493.1,49.6,489,32z"/>
	<path class="st8" d="M469.2,52.9c-16,8.3-30.4,18.6-43.8,30.8c-0.1-1.9-0.4-3.7-0.4-5.3c-0.5-13.8,4.1-25.6,13.7-35.7
		c0.9-0.9,1.6-1.2,3-0.8c9.1,3,18,6.2,26.6,10.3C468.4,52.6,468.7,52.8,469.2,52.9z"/>
	<path class="st6" d="M455,120.6c-2.6-1.4-5.3-2.6-7.7-4.1c-10.7-6.8-17.8-16.3-21-28.5c-0.3-0.9-0.1-1.4,0.7-1.9
		c7.1-6.5,14.5-12.6,22.5-18c0.3-0.1,0.7-0.4,1.1-0.7c-0.8,18,0.8,35.7,4.7,53C455.1,120.3,455.1,120.5,455,120.6z"/>
	<path class="st8" d="M490.6,61.9c-15.2-9.6-31.2-17.1-48.4-22.4c0.8-0.7,1.4-1.1,1.9-1.5c12.5-8.8,26-11.1,40.8-7.3
		c0.7,0.1,1.1,0.5,1.2,1.2c2.2,9.8,3.7,19.5,4.5,29.4C490.8,61.4,490.8,61.6,490.6,61.9z"/>
</g>
<polyline class="st0" points="640,145.4 532.7,145.4 532.7,7.1 640,7.1 "/>
<rect x="532.7" y="7.1" class="st0" width="97.8" height="152.5"/>
<g class="st1">
	<path class="st2" d="M566.3,116.3c0.8,0,1.4,0.3,1.9,0.7c0.5,0.4,0.8,1.1,0.8,1.9v2.2c0,1.1-0.3,1.8-0.9,2
		c-0.5,0.4-1.4,0.5-2.2,0.5h-2c-2.3,0-4.3-0.1-6.4-0.4c-1.9-0.3-3.7-0.9-5-2c-1.4-1.1-2.6-2.7-3.4-4.7c-0.8-2.2-1.2-5-1.2-8.5V65.1
		h-9.2c-0.9,0-1.5-0.1-1.9-0.5c-0.4-0.4-0.7-0.9-0.7-1.9v-2.4c0-0.9,0.3-1.5,0.7-1.9c0.4-0.4,1.1-0.5,1.9-0.5h9.2V38.3
		c0-1.4,0.7-2.2,2.2-2.3l3.3-0.4c0.9,0,1.5,0.3,1.8,0.8s0.4,1.2,0.4,2v19.4H567c0.8,0,1.5,0.1,1.9,0.5s0.7,1.1,0.7,1.9v2.2
		c0,0.9-0.3,1.5-0.7,1.9c-0.4,0.4-1.1,0.5-1.9,0.5h-11.5v41c0,2.3,0.1,4.2,0.4,5.4c0.3,1.4,0.8,2.3,1.5,3c0.7,0.7,1.5,1.1,2.4,1.4
		c0.9,0.1,2.2,0.4,3.7,0.5h2.8V116.3z"/>
	<path class="st2" d="M615.7,71.2c-1.4-2.3-3.3-4.2-5.7-5.7c-2.4-1.5-5.2-2.2-8.1-2.2c-1.9,0-3.7,0.3-5.3,0.8
		c-1.6,0.5-3,1.2-4.1,2.3c-1.1,0.9-2,2.2-2.7,3.5c-0.7,1.4-0.9,2.8-0.9,4.5c0,1.6,0.4,3,1.2,4.2c0.8,1.2,1.9,2.3,3.1,3.1
		c1.2,0.8,2.6,1.6,4.1,2.2c1.5,0.5,2.8,1.1,4.2,1.4l2,0.5c3.3,0.9,6.1,2,8.7,3.3c2.6,1.2,4.7,2.7,6.6,4.5c1.9,1.8,3.3,3.5,4.2,5.6
		c0.9,2,1.5,4.2,1.5,6.5c0,3-0.7,5.7-1.9,8c-1.2,2.3-2.8,4.3-5,6c-2.2,1.6-4.5,2.8-7.3,3.7c-2.7,0.8-5.7,1.2-8.7,1.2
		c-2.6,0-4.9-0.3-7.3-0.8c-2.3-0.5-4.5-1.5-6.5-2.6c-2-1.1-3.7-2.6-5.2-4.2c-1.5-1.8-2.6-3.7-3.3-5.8c-0.1-0.3-0.1-0.5-0.1-0.8
		c0-0.4,0.1-0.7,0.4-1.2c0.3-0.4,0.7-0.7,1.2-0.9l2.6-1.1c0.4-0.1,0.7-0.1,0.9-0.1c0.4,0,0.8,0.1,1.1,0.4c0.3,0.3,0.5,0.5,0.8,0.9
		l0.3,0.7c0.7,1.4,1.6,2.7,2.8,3.8c1.2,1.1,2.4,2,3.8,2.8s2.8,1.4,4.2,1.6c1.5,0.4,2.7,0.5,3.9,0.5c1.6,0,3.3-0.3,5.2-0.7
		c1.9-0.4,3.5-1.2,5-2.2c1.5-0.9,2.8-2.2,3.8-3.7c1.1-1.5,1.5-3.3,1.5-5.3c0-1.9-0.5-3.5-1.5-5c-1.1-1.5-2.3-2.7-3.9-3.7
		c-1.6-1.1-3.4-1.9-5.3-2.6s-3.8-1.2-5.7-1.8c-2.3-0.7-4.6-1.5-6.9-2.7c-2.3-1.1-4.3-2.4-6.1-3.9c-1.8-1.5-3.3-3.3-4.3-5.2
		c-1.1-1.9-1.6-4.1-1.6-6.4c0-2.7,0.5-5.2,1.5-7.3s2.3-4.1,4.1-5.7c1.8-1.6,3.9-2.8,6.4-3.7c2.4-0.8,5.3-1.4,8.3-1.4
		c4.5,0,8.4,0.9,11.9,2.8s6.5,4.9,8.8,9c0.3,0.5,0.3,0.9,0.3,1.4c0,0.3-0.1,0.7-0.3,0.9c-0.1,0.3-0.4,0.5-0.8,0.8l-2.3,1.4
		c-0.7,0.4-1.1,0.5-1.6,0.5c-0.5,0-0.8-0.1-1.1-0.4s-0.5-0.7-0.8-1.1L615.7,71.2L615.7,71.2z"/>
</g>
</svg>
